{"extensions":{"PTC_onshape_metadata":{"documentId":"7b80ed64f807d1359b83317e","elementId":"8c1b7d9a6cfa788e532f602b"}},"extensionsUsed":["PTC_onshape_metadata"],"accessors":[{"bufferView":0,"byteOffset":0,"componentType":5126,"count":624,"type":"VEC3","max":[0.0551,0.16245,0.086295225],"min":[0.0059,-0.08577341,-0.104295224]},{"bufferView":1,"byteOffset":0,"componentType":5126,"count":624,"type":"VEC3"},{"bufferView":2,"byteOffset":0,"componentType":5123,"count":1764,"type":"SCALAR"}],"asset":{"version":"2.0"},"buffers":[{"uri":"data:application/octet-stream;base64,","byteLength":18504}],"bufferViews":[{"buffer":0,"byteOffset":0,"byteLength":7488},{"buffer":0,"byteOffset":7488,"byteLength":7488},{"buffer":0,"byteOffset":14976,"byteLength":3528}],"materials":[{"pbrMetallicRoughness":{"baseColorFactor":[0.6156863,0.8117647,0.92941177,1.0],"metallicFactor":0.0},"alphaMode":"OPAQUE","doubleSided":false}],"meshes":[{"primitives":[{"attributes":{"POSITION":0,"NORMAL":1},"indices":2,"material":0,"mode":4}]}],"nodes":[{"extensions":{"PTC_onshape_metadata":{"id":["JQD"]}},"name":"Main","mesh":0}],"scene":0,"scenes":[{"nodes":[0]}]}