{"extensions":{"PTC_onshape_metadata":{"documentId":"7b80ed64f807d1359b83317e","elementId":"8c1b7d9a6cfa788e532f602b"}},"extensionsUsed":["PTC_onshape_metadata"],"accessors":[{"bufferView":0,"byteOffset":0,"componentType":5126,"count":296,"type":"VEC3","max":[0.045754798,0.13133721,-0.109250255],"min":[0.02101635,0.108761124,-0.11448773]},{"bufferView":1,"byteOffset":0,"componentType":5126,"count":296,"type":"VEC3"},{"bufferView":2,"byteOffset":0,"componentType":5123,"count":876,"type":"SCALAR"}],"asset":{"version":"2.0"},"buffers":[{"uri":"data:application/octet-stream;base64,","byteLength":8856}],"bufferViews":[{"buffer":0,"byteOffset":0,"byteLength":3552},{"buffer":0,"byteOffset":3552,"byteLength":3552},{"buffer":0,"byteOffset":7104,"byteLength":1752}],"materials":[{"pbrMetallicRoughness":{"baseColorFactor":[0.34117648,0.7764706,0.7411765,1.0],"metallicFactor":0.0},"alphaMode":"OPAQUE","doubleSided":false}],"meshes":[{"primitives":[{"attributes":{"POSITION":0,"NORMAL":1},"indices":2,"material":0,"mode":4}]}],"nodes":[{"extensions":{"PTC_onshape_metadata":{"id":["RVBD"]}},"name":"Link","mesh":0}],"scene":0,"scenes":[{"nodes":[0]}]}