{"extensions":{"PTC_onshape_metadata":{"documentId":"7b80ed64f807d1359b83317e","elementId":"8c1b7d9a6cfa788e532f602b"}},"extensionsUsed":["PTC_onshape_metadata"],"accessors":[{"bufferView":0,"byteOffset":0,"componentType":5126,"count":2647,"type":"VEC3","max":[-0.07367844134569168,0.17225512862205505,-0.09983538091182709],"min":[-0.18424467742443085,0.07236586511135101,-0.1198330819606781]},{"bufferView":1,"byteOffset":0,"componentType":5126,"count":2647,"type":"VEC3"},{"bufferView":2,"byteOffset":0,"componentType":5123,"count":14658,"type":"SCALAR"}],"asset":{"version":"2.0"},"buffers":[{"uri":"data:application/octet-stream;base64,","byteLength":92844}],"bufferViews":[{"buffer":0,"byteOffset":0,"byteLength":31764},{"buffer":0,"byteOffset":31764,"byteLength":31764},{"buffer":0,"byteOffset":63528,"byteLength":29316}],"materials":[{"pbrMetallicRoughness":{"baseColorFactor":[0.14117648,0.69411767,0.6509804,1.0],"metallicFactor":0.0},"alphaMode":"OPAQUE","doubleSided":false}],"meshes":[{"primitives":[{"attributes":{"POSITION":0,"NORMAL":1},"indices":2,"material":0,"mode":4}]}],"nodes":[{"extensions":{"PTC_onshape_metadata":{"id":["REBD"]}},"name":"Tibula","mesh":0}],"scene":0,"scenes":[{"nodes":[0]}]}