{"extensions":{"PTC_onshape_metadata":{"documentId":"7b80ed64f807d1359b83317e","elementId":"8c1b7d9a6cfa788e532f602b"}},"extensionsUsed":["PTC_onshape_metadata"],"accessors":[{"bufferView":0,"byteOffset":0,"componentType":5126,"count":396,"type":"VEC3","max":[0.030086061,0.19038627,-0.10933748],"min":[-0.0076995203,0.15476453,-0.11464758]},{"bufferView":1,"byteOffset":0,"componentType":5126,"count":396,"type":"VEC3"},{"bufferView":2,"byteOffset":0,"componentType":5123,"count":1176,"type":"SCALAR"}],"asset":{"version":"2.0"},"buffers":[{"uri":"data:application/octet-stream;base64,","byteLength":11856}],"bufferViews":[{"buffer":0,"byteOffset":0,"byteLength":4752},{"buffer":0,"byteOffset":4752,"byteLength":4752},{"buffer":0,"byteOffset":9504,"byteLength":2352}],"materials":[{"pbrMetallicRoughness":{"baseColorFactor":[0.5137255,0.7372549,0.40784314,1.0],"metallicFactor":0.0},"alphaMode":"OPAQUE","doubleSided":false}],"meshes":[{"primitives":[{"attributes":{"POSITION":0,"NORMAL":1},"indices":2,"material":0,"mode":4}]}],"nodes":[{"extensions":{"PTC_onshape_metadata":{"id":["ROBD"]}},"name":"Servo link","mesh":0}],"scene":0,"scenes":[{"nodes":[0]}]}