{"extensions":{"PTC_onshape_metadata":{"documentId":"7b80ed64f807d1359b83317e","elementId":"8c1b7d9a6cfa788e532f602b"}},"extensionsUsed":["PTC_onshape_metadata"],"accessors":[{"bufferView":0,"byteOffset":0,"componentType":5126,"count":520,"type":"VEC3","max":[-0.030711745843291283,0.19038283824920654,-0.11389577388763428],"min":[-0.109462670981884,0.08594558387994766,-0.12233378738164902]},{"bufferView":1,"byteOffset":0,"componentType":5126,"count":520,"type":"VEC3"},{"bufferView":2,"byteOffset":0,"componentType":5123,"count":1548,"type":"SCALAR"}],"asset":{"version":"2.0"},"buffers":[{"uri":"data:application/octet-stream;base64,","byteLength":15576}],"bufferViews":[{"buffer":0,"byteOffset":0,"byteLength":6240},{"buffer":0,"byteOffset":6240,"byteLength":6240},{"buffer":0,"byteOffset":12480,"byteLength":3096}],"materials":[{"pbrMetallicRoughness":{"baseColorFactor":[0.23137255,0.38039216,0.7058824,1.0],"metallicFactor":0.0},"alphaMode":"OPAQUE","doubleSided":false}],"meshes":[{"primitives":[{"attributes":{"POSITION":0,"NORMAL":1},"indices":2,"material":0,"mode":4}]}],"nodes":[{"extensions":{"PTC_onshape_metadata":{"id":["J1D"]}},"name":"Femur","mesh":0}],"scene":0,"scenes":[{"nodes":[0]}]}