{"extensions":{"PTC_onshape_metadata":{"documentId":"7b80ed64f807d1359b83317e","elementId":"8c1b7d9a6cfa788e532f602b"}},"extensionsUsed":["PTC_onshape_metadata"],"accessors":[{"bufferView":0,"byteOffset":0,"componentType":5126,"count":1208,"type":"VEC3","max":[-0.005508944392204285,0.18844829499721527,-0.08447374403476715],"min":[-0.05511517822742462,0.11744999885559082,-0.11433567106723785]},{"bufferView":1,"byteOffset":0,"componentType":5126,"count":1208,"type":"VEC3"},{"bufferView":2,"byteOffset":0,"componentType":5123,"count":3570,"type":"SCALAR"}],"asset":{"version":"2.0"},"buffers":[{"uri":"data:application/octet-stream;base64,","byteLength":36132}],"bufferViews":[{"buffer":0,"byteOffset":0,"byteLength":14496},{"buffer":0,"byteOffset":14496,"byteLength":14496},{"buffer":0,"byteOffset":28992,"byteLength":7140}],"materials":[{"pbrMetallicRoughness":{"baseColorFactor":[0.64705884,0.64705884,0.64705884,1.0],"metallicFactor":0.0},"alphaMode":"OPAQUE","doubleSided":false}],"meshes":[{"primitives":[{"attributes":{"POSITION":0,"NORMAL":1},"indices":2,"material":0,"mode":4}]}],"nodes":[{"extensions":{"PTC_onshape_metadata":{"id":["JdD"]}},"name":"Hub","mesh":0}],"scene":0,"scenes":[{"nodes":[0]}]}