{"extensions":{"PTC_onshape_metadata":{"documentId":"7b80ed64f807d1359b83317e","elementId":"8c1b7d9a6cfa788e532f602b"}},"extensionsUsed":["PTC_onshape_metadata"],"accessors":[{"bufferView":0,"byteOffset":0,"componentType":5126,"count":308,"type":"VEC3","max":[0.0036739883944392204,0.1647600382566452,-0.11445433646440506],"min":[-0.027066387236118317,0.108760304749012,-0.11872527003288269]},{"bufferView":1,"byteOffset":0,"componentType":5126,"count":308,"type":"VEC3"},{"bufferView":2,"byteOffset":0,"componentType":5123,"count":900,"type":"SCALAR"}],"asset":{"version":"2.0"},"buffers":[{"uri":"data:application/octet-stream;base64,","byteLength":9192}],"bufferViews":[{"buffer":0,"byteOffset":0,"byteLength":3696},{"buffer":0,"byteOffset":3696,"byteLength":3696},{"buffer":0,"byteOffset":7392,"byteLength":1800}],"materials":[{"pbrMetallicRoughness":{"baseColorFactor":[0.5137255,0.41568628,0.73333335,1.0],"metallicFactor":0.0},"alphaMode":"OPAQUE","doubleSided":false}],"meshes":[{"primitives":[{"attributes":{"POSITION":0,"NORMAL":1},"indices":2,"material":0,"mode":4}]}],"nodes":[{"extensions":{"PTC_onshape_metadata":{"id":["RSBD"]}},"name":"Tri Link","mesh":0}],"scene":0,"scenes":[{"nodes":[0]}]}