{"extensions":{"PTC_onshape_metadata":{"documentId":"7b80ed64f807d1359b83317e","elementId":"8c1b7d9a6cfa788e532f602b"}},"extensionsUsed":["PTC_onshape_metadata"],"accessors":[{"bufferView":0,"byteOffset":0,"componentType":5126,"count":617,"type":"VEC3","max":[-0.016971129924058914,0.16885660588741302,-0.11331608146429062],"min":[-0.08785376697778702,0.07226566970348358,-0.12241040915250778]},{"bufferView":1,"byteOffset":0,"componentType":5126,"count":617,"type":"VEC3"},{"bufferView":2,"byteOffset":0,"componentType":5123,"count":1842,"type":"SCALAR"}],"asset":{"version":"2.0"},"buffers":[{"uri":"data:application/octet-stream;base64,","byteLength":18492}],"bufferViews":[{"buffer":0,"byteOffset":0,"byteLength":7404},{"buffer":0,"byteOffset":7404,"byteLength":7404},{"buffer":0,"byteOffset":14808,"byteLength":3684}],"materials":[{"pbrMetallicRoughness":{"baseColorFactor":[0.49803922,0.49803922,0.49803922,1.0],"metallicFactor":0.0},"alphaMode":"OPAQUE","doubleSided":false}],"meshes":[{"primitives":[{"attributes":{"POSITION":0,"NORMAL":1},"indices":2,"material":0,"mode":4}]}],"nodes":[{"extensions":{"PTC_onshape_metadata":{"id":["RgBD"]}},"name":"Long Link","mesh":0}],"scene":0,"scenes":[{"nodes":[0]}]}